<?xml version="1.0" encoding="UTF-8" standalone="no"?>
<svg
   xmlns:dc="http://purl.org/dc/elements/1.1/"
   xmlns:cc="http://creativecommons.org/ns#"
   xmlns:rdf="http://www.w3.org/1999/02/22-rdf-syntax-ns#"
   xmlns:svg="http://www.w3.org/2000/svg"
   xmlns="http://www.w3.org/2000/svg"
   xmlns:sodipodi="http://sodipodi.sourceforge.net/DTD/sodipodi-0.dtd"
   xmlns:inkscape="http://www.inkscape.org/namespaces/inkscape"
   aria-hidden="true"
   focusable="false"
   data-prefix="far"
   data-icon="cash-register"
   class="svg-inline--fa fa-cash-register fa-w-16"
   role="img"
   viewBox="0 0 512 512"
   id="svg4136"
   version="1.1"
   inkscape:version="0.91 r13725"
   sodipodi:docname="favicon.svg">
  <metadata
     id="metadata4144">
    <rdf:RDF>
      <cc:Work
         rdf:about="">
        <dc:format>image/svg+xml</dc:format>
        <dc:type
           rdf:resource="http://purl.org/dc/dcmitype/StillImage" />
      </cc:Work>
    </rdf:RDF>
  </metadata>
  <defs
     id="defs4142" />
  <sodipodi:namedview
     pagecolor="#ffffff"
     bordercolor="#666666"
     borderopacity="1"
     objecttolerance="10"
     gridtolerance="10"
     guidetolerance="10"
     inkscape:pageopacity="0"
     inkscape:pageshadow="2"
     inkscape:window-width="1920"
     inkscape:window-height="1027"
     id="namedview4140"
     showgrid="false"
     inkscape:zoom="1.6757812"
     inkscape:cx="256"
     inkscape:cy="256"
     inkscape:window-x="-8"
     inkscape:window-y="-8"
     inkscape:window-maximized="1"
     inkscape:current-layer="layer1" />
  <g
     inkscape:groupmode="layer"
     id="layer1"
     inkscape:label="Background"
     style="display:inline">
    <rect
       style="fill:#e6e6e6;fill-opacity:1;stroke:#800000;stroke-width:3;stroke-linecap:round;stroke-miterlimit:4;stroke-dasharray:none;stroke-opacity:1"
       id="rect4158"
       width="242.8718"
       height="62.060608"
       x="59.076923"
       y="34.61071"
       rx="11.1117"
       ry="11.1117" />
    <rect
       style="fill:#e6e6e6;fill-opacity:1;stroke:#800000;stroke-width:3;stroke-linecap:round;stroke-miterlimit:4;stroke-dasharray:none;stroke-opacity:1"
       id="rect4160"
       width="437.40793"
       height="192.14919"
       x="38.78788"
       y="197.51981"
       rx="11.1117"
       ry="11.1117" />
    <rect
       style="fill:#e6e6e6;fill-opacity:1;stroke:#800000;stroke-width:3;stroke-linecap:round;stroke-miterlimit:4;stroke-dasharray:none;stroke-opacity:1"
       id="rect4162"
       width="454.71329"
       height="77.57576"
       x="25.062939"
       y="402.20047"
       rx="11.1117"
       ry="11.1117" />
  </g>
  <g
     inkscape:groupmode="layer"
     id="layer2"
     inkscape:label="Pos"
     style="display:inline">
    <path
       inkscape:connector-curvature="0"
       d="m 168.00001,296 -16,0 c -8.8,0 -16,7.2 -16,16 l 0,16 c 0,8.8 7.2,16 16,16 l 16,0 c 8.8,0 16,-7.2 16,-16 l 0,-16 c 0,-8.8 -7.2,-16 -16,-16 z m -32,-48 c 0,-8.8 -7.2,-16 -16,-16 l -16,0 c -8.800005,0 -16.000005,7.2 -16.000005,16 l 0,16 c 0,8.8 7.2,16 16.000005,16 l 16,0 c 8.8,0 16,-7.2 16,-16 l 0,-16 z m 96,0 c 0,-8.8 -7.2,-16 -16,-16 l -16,0 c -8.8,0 -16,7.2 -16,16 l 0,16 c 0,8.8 7.2,16 16,16 l 16,0 c 8.8,0 16,-7.2 16,-16 l 0,-16 z m 128,48 -16,0 c -8.8,0 -16,7.2 -16,16 l 0,16 c 0,8.8 7.2,16 16,16 l 16,0 c 8.8,0 16,-7.2 16,-16 l 0,-16 c 0,-8.8 -7.2,-16 -16,-16 z m 48,-64 -16,0 c -8.8,0 -16,7.2 -16,16 l 0,16 c 0,8.8 7.2,16 16,16 l 16,0 c 8.8,0 16,-7.2 16,-16 l 0,-16 c 0,-8.8 -7.2,-16 -16,-16 z m 103.4,147.5 -25.5,-178.3 c -3.4,-23.6 -23.6,-41.2 -47.5,-41.2 l -230.4,0 0,-32 96,0 c 8.8,0 16,-7.2 16,-16 l 0,-95.999998 c 0,-8.7999995 -7.2,-15.9999995 -16,-15.9999995 l -256.000005,0 C 39.200005,2.5e-6 32,7.2000025 32,16.000002 L 32,112 c 0,8.8 7.200005,16 16.000005,16 l 96.000005,0 0,32 -70.400005,0 C 49.700005,160 29.5,177.6 26.1,201.2 L 0.59999999,379.5 C 0.2,382.5 0,385.5 0,388.6 L 0,464 c 0,26.5 21.5,48 48.000005,48 l 416.000005,0 c 26.5,0 48,-21.5 48,-48 l 0,-75.5 c 0,-3 -0.2,-6 -0.6,-9 z M 80.000005,80.000002 l 0,-32 192.000005,0 0,32 -192.000005,0 z m -6.4,127.999998 364.700005,0 22.9,160 -410.400005,0 22.8,-160 z m 390.400005,256 -416.000005,0 0,-48 416.000005,0 0,48 z m -136,-216 c 0,-8.8 -7.2,-16 -16,-16 l -16,0 c -8.8,0 -16,7.2 -16,16 l 0,16 c 0,8.8 7.2,16 16,16 l 16,0 c 8.8,0 16,-7.2 16,-16 l 0,-16 z m -64,48 -16,0 c -8.8,0 -16,7.2 -16,16 l 0,16 c 0,8.8 7.2,16 16,16 l 16,0 c 8.8,0 16,-7.2 16,-16 l 0,-16 c 0,-8.8 -7.2,-16 -16,-16 z"
       id="path4138"
       style="fill:#550000;fill-opacity:1" />
  </g>
</svg>
